<svg width="92" height="87" fill="none" xmlns="http://www.w3.org/2000/svg"><path d="M64.41 73.824L61.891 53.67a11.8 11.8 0 00-11.709-10.337h-8.666a11.8 11.8 0 00-11.71 10.337l-2.518 20.154c-.587 4.696 3.074 8.843 7.805 8.843h21.512c4.732 0 8.393-4.147 7.806-8.843z" stroke="#0A3C55" stroke-width="7" stroke-linecap="round" stroke-linejoin="round"/><path d="M45.85 27.6c6.516 0 11.8-5.283 11.8-11.8S52.365 4 45.85 4c-6.518 0-11.8 5.283-11.8 11.8s5.282 11.8 11.8 11.8zM14.382 39.4a7.867 7.867 0 100-15.733 7.867 7.867 0 000 15.733zm62.934 0a7.867 7.867 0 100-15.733 7.867 7.867 0 000 15.733z" stroke="#0A3C55" stroke-width="7"/><path d="M14.382 51.2H13.18a7.867 7.867 0 00-7.76 6.573L4.11 65.64c-.8 4.795 2.898 9.16 7.76 9.16h14.313m51.133-23.6h1.202a7.867 7.867 0 017.76 6.573l1.311 7.867c.8 4.795-2.898 9.16-7.759 9.16H65.516" stroke="#0A3C55" stroke-width="7" stroke-linecap="round" stroke-linejoin="round"/></svg>