<svg width="128" height="89" fill="none" xmlns="http://www.w3.org/2000/svg"><path d="M96.28 0L83.85 12.43l1.156 1.2a51.957 51.957 0 01-2.465 1.889c-1.305.932-2.558 1.68-3.407 2.03-.055.025-.286.09-.744.088-.732.008-1.956-.179-3.456-.408-1.506-.227-3.308-.474-5.339-.476a21.526 21.526 0 00-5.783.774 21.663 21.663 0 00-5.77-.772c-2.034 0-3.835.248-5.342.477-1.5.229-2.722.415-3.453.407-.46.004-.69-.065-.736-.087-.906-.371-2.273-1.198-3.679-2.222a54.202 54.202 0 01-2.205-1.704l1.153-1.196L31.35 0 0 32.471l12.43 12.43 3.637-3.768 8.031 7.009c.225 1.343.649 2.612 1.137 3.817a29.6 29.6 0 001.024 2.197 8.178 8.178 0 00-1.196 4.24A8.177 8.177 0 0026.3 62.72a8.19 8.19 0 005.486 3.723 8.172 8.172 0 001.23 4.24 8.197 8.197 0 006.972 3.872c.105 0 .213-.016.318-.02a8.2 8.2 0 001.172 3.365 8.199 8.199 0 006.968 3.87c.272 0 .541-.028.815-.054a7.466 7.466 0 001.062 3.026 7.46 7.46 0 006.344 3.525 7.447 7.447 0 003.937-1.12l3.725-2.32a14.98 14.98 0 002.313 1.233c1.506.634 3.134 1.023 4.826 1.025 1.857.009 3.817-.5 5.503-1.686 1.099-.766 2.03-1.816 2.791-3.054.118.004.213.024.335.026a8.33 8.33 0 002.459-.377c.845-.257 1.684-.643 2.58-1.155 2.136-1.204 3.417-2.976 4.04-4.494a9.14 9.14 0 00.326-.947 7.336 7.336 0 001.46-.624c1.651-.95 2.728-2.395 3.39-3.847.665-1.466.957-2.988.961-4.45 0-.145-.018-.285-.024-.427a10.304 10.304 0 002.878-1.78 9.3 9.3 0 002.088-2.59c.527-.98.88-2.104.882-3.334a5.898 5.898 0 00-.521-2.434c-.116-.252-.28-.483-.43-.716.63-1.129 1.273-2.401 1.8-3.776.395-1.04.728-2.13.918-3.276l8.373-7.307 3.924 4.064 12.43-12.43L96.28 0zM34.586 60.194l-.144.091a2.226 2.226 0 01-3.07-.717 2.201 2.201 0 01-.338-1.171 2.222 2.222 0 011.05-1.898l4.924-3.058a2.216 2.216 0 011.17-.339 2.229 2.229 0 011.899 1.056l2.535-1.575-2.535 1.577c.23.373.334.766.336 1.168a2.253 2.253 0 01-.533 1.435l-4.228 2.627a8.24 8.24 0 00-1.066.804zm6.573 8.053a2.225 2.225 0 01-3.407-1.889c.002-.523.19-1.025.529-1.427l4.23-2.633c.383-.237.73-.512 1.06-.8l.154-.093c.375-.233.77-.337 1.17-.337a2.22 2.22 0 011.899 1.054 2.225 2.225 0 01-.72 3.07l-4.915 3.055zm13.376 4.16l-4.917 3.056a2.224 2.224 0 01-3.069-.715 2.229 2.229 0 01.713-3.07l4.924-3.06a2.174 2.174 0 011.17-.334 2.215 2.215 0 011.899 1.052 2.226 2.226 0 01-.72 3.07zm7.623 4.986c.156.25.223.509.225.78a1.496 1.496 0 01-.71 1.275l-4.221 2.623a1.436 1.436 0 01-.785.225 1.49 1.49 0 01-1.498-1.49 1.49 1.49 0 01.703-1.269h.002l4.227-2.627a1.484 1.484 0 012.055.478l2.538-1.572-2.536 1.577zm32.835-18.537c-.217.42-.712.967-1.338 1.35-.626.388-1.354.614-2.051.612-.248 0-.487.043-.72.104a8.227 8.227 0 01-1.27-.39c-1.3-.506-2.514-1.327-3.371-2.02a15.88 15.88 0 01-.998-.876l-.251-.25-.055-.056-.008-.008h-.002a2.238 2.238 0 00-3.296 3.032c.075.077 1.2 1.306 3.043 2.57a16.613 16.613 0 003.3 1.776c.293.116.6.223.914.32.087.197.199.384.33.56l-.006.004c.017.012.138.398.128.892.014.825-.286 1.905-.718 2.501-.21.304-.425.497-.634.616-.212.118-.427.195-.83.201l-.145-.002c-.085-.004-.166.01-.25.014h-.005c-1.942.008-3.75-.825-5.084-1.737a12.795 12.795 0 01-1.952-1.633l-.087-.094-.014-.018h-.002a2.238 2.238 0 00-3.379 2.939l-.002-.001c.087.097 1.121 1.288 2.92 2.513 1.183.8 2.727 1.63 4.562 2.108-.02.053-.033.105-.057.158-.235.53-.572 1.078-1.488 1.613-.618.353-1.06.538-1.37.63a2.245 2.245 0 01-.71.114c-.29.004-.725-.06-1.45-.209a2.624 2.624 0 00-.396-.044 2.24 2.24 0 01-.148-.065c-.742-.349-1.646-.98-2.313-1.516a20.178 20.178 0 01-.813-.681l-.219-.199-.05-.049-.01-.008a2.242 2.242 0 00-3.168.071 2.24 2.24 0 00.073 3.166c.046.043.989.947 2.31 1.896.235.166.495.334.754.5-.365.582-.746.981-1.119 1.247-.596.41-1.244.604-2.08.608-.747.002-1.627-.182-2.507-.555-.291-.122-.577-.294-.865-.454.168-.629.261-1.28.26-1.932a7.452 7.452 0 00-6.806-7.42c-.001-.082.013-.163.013-.246a8.194 8.194 0 00-1.235-4.324v.005a8.191 8.191 0 00-6.972-3.878c-.106 0-.213.018-.319.022a8.184 8.184 0 00-1.17-3.363 8.167 8.167 0 00-5.488-3.723 8.18 8.18 0 00-1.23-4.24h.002a8.206 8.206 0 00-6.973-3.876 8.21 8.21 0 00-4.324 1.236l-2.876 1.788c-.069-.158-.156-.312-.219-.47-.5-1.198-.815-2.38-.85-3.195l-.066-1.26-9.622-8.4 18.243-18.893a60.616 60.616 0 002.87 2.232c1.626 1.171 3.237 2.205 4.883 2.898 1.056.436 2.086.543 3.03.545 1.513-.006 2.899-.265 4.344-.476.093-.016.19-.024.286-.039-1.986 1.705-3.72 3.55-5.185 5.267a72.801 72.801 0 00-3.101 3.93c-.815 1.109-1.444 2.003-1.72 2.355-1.357 1.768-1.94 3.882-1.953 6 .006 1.97.529 4.021 1.887 5.755a7.496 7.496 0 002.651 2.118c1.072.514 2.3.778 3.58.778 1.587-.004 3.25-.39 5.012-1.13 5.53-2.338 11.23-3.897 15.519-4.858a99.5 99.5 0 015.815-1.123l18.763 16.176.008.004.007.01c-.003.058-.031.226-.167.477zm2.17-13.627L97.1 46.49c-.035.722-.28 1.74-.692 2.793a19.756 19.756 0 01-.731 1.654L79.243 36.773a2.998 2.998 0 00-2.326-.701c-.146.028-12.198 1.54-24.192 6.595-1.194.505-2.09.661-2.69.657-.488 0-.786-.087-1.007-.193-.32-.156-.55-.377-.776-.8-.217-.418-.365-1.034-.363-1.682-.012-.933.32-1.881.693-2.331.464-.6 1.032-1.419 1.814-2.477 1.161-1.573 2.739-3.608 4.62-5.589 1.876-1.98 4.06-3.897 6.348-5.243 3.095-1.818 5.732-2.274 8.231-2.283 1.539-.002 3.014.19 4.454.408 1.442.212 2.833.468 4.341.476.943-.002 1.966-.11 3.018-.54l.014-.003c1.646-.694 3.258-1.727 4.883-2.899a59.784 59.784 0 002.864-2.23l17.957 18.598-9.962 8.693z" fill="#0A3C55"/></svg>