<svg width="98" height="87" fill="none" xmlns="http://www.w3.org/2000/svg"><path d="M4 4h25M4 38.563h33.82m22.36 0H94M94 19.8v47.4c0 5.53 0 8.296-1.09 10.408a9.937 9.937 0 01-4.37 4.316C86.401 83 83.6 83 78 83H20c-5.6 0-8.4 0-10.54-1.076a9.937 9.937 0 01-4.37-4.316C4 75.496 4 72.731 4 67.2V34.612c0-5.53 0-8.295 1.09-10.408a9.938 9.938 0 014.37-4.315c2.14-1.076 4.94-1.076 10.54-1.076h7.373c2.445 0 3.668 0 4.82-.273a10.063 10.063 0 002.89-1.183c1.009-.61 1.874-1.464 3.603-3.172l5.627-5.557c1.73-1.708 2.595-2.562 3.604-3.173.895-.541 1.87-.94 2.89-1.182C51.959 4 53.181 4 55.627 4H78c5.6 0 8.401 0 10.54 1.076a9.937 9.937 0 014.37 4.316C94 11.504 94 14.27 94 19.8zM64 48.437c0 8.181-6.715 14.813-15 14.813s-15-6.632-15-14.813c0-8.18 6.715-14.812 15-14.812s15 6.632 15 14.813z" stroke="#0A3C55" stroke-width="7" stroke-linecap="round" stroke-linejoin="round"/></svg>