<svg width="27" height="26" fill="none" xmlns="http://www.w3.org/2000/svg"><path d="M13.076 8.718a4.33 4.33 0 00-4.321 4.322 4.331 4.331 0 004.321 4.322 4.331 4.331 0 004.322-4.322 4.331 4.331 0 00-4.322-4.322zm12.962 4.322c0-1.79.017-3.563-.084-5.35-.1-2.075-.574-3.916-2.09-5.433C22.342.736 20.503.266 18.428.165c-1.79-.1-3.563-.084-5.35-.084-1.789 0-3.562-.016-5.349.084-2.075.1-3.916.574-5.434 2.092C.776 3.777.306 5.615.206 7.69.104 9.48.12 11.254.12 13.04c0 1.787-.016 3.563.084 5.35.1 2.075.574 3.916 2.091 5.434 1.521 1.52 3.36 1.99 5.434 2.09 1.79.101 3.563.085 5.35.085 1.79 0 3.563.016 5.35-.084 2.074-.1 3.916-.574 5.433-2.091 1.52-1.521 1.99-3.36 2.091-5.434.104-1.787.084-3.56.084-5.35zm-12.962 6.65a6.64 6.64 0 01-6.65-6.65 6.64 6.64 0 016.65-6.65 6.64 6.64 0 016.65 6.65 6.64 6.64 0 01-6.65 6.65zm6.922-12.02a1.551 1.551 0 01-1.553-1.553c0-.86.694-1.553 1.553-1.553a1.551 1.551 0 011.436 2.148 1.551 1.551 0 01-1.436.958z" fill="#fff"/></svg>