<svg xmlns="http://www.w3.org/2000/svg" width="422.498" height="81.784" viewBox="0 0 11178.6 2163.86" shape-rendering="geometricPrecision" text-rendering="geometricPrecision" image-rendering="optimizeQuality" fill-rule="evenodd" clip-rule="evenodd"><defs><radialGradient id="b" gradientUnits="userSpaceOnUse" gradientTransform="matrix(.00004 1 -1.00003 .00018 2164 0)" cx="1081.93" cy="1081.93" r="1081.93" fx="1081.93" fy="1081.93"><stop offset="0" stop-color="#1b8394"/><stop offset="1" stop-color="#123b58"/></radialGradient><linearGradient id="a" gradientUnits="userSpaceOnUse" x1="2474" y1="408.56" x2="2474.04" y2="1839.32"><stop offset="0" stop-color="#123b58"/><stop offset="1" stop-color="#1b8394"/></linearGradient></defs><path d="M2573.05 1644.55c0 66.15 69.54 183.58 143.3 183.58v11.19h-484.7v-11.19c73.76 0 143.3-117.43 143.3-183.58V594.75c0-66.14-69.54-175-143.3-175v-11.19h484.7v11.19c-73.76 0-143.3 108.85-143.3 175v1049.8zm8120.85 183.67c73.76 0 143.3-117.43 143.3-183.58v-524.9c.01-175.18-223.8-159.71-297.92-48.23.78 16.17.96 32.04 1.17 48.23v524.9c0 66.15 69.54 183.58 143.3 183.58v11.19l-484.71.01.01-11.2c78.55-1.83 142.44-116.01 143.29-183.57v-524.9c0-134.75-136.45-137.41-136.45-133.49-62.24 2.2-118.93 39.62-160.31 83.51l.01 574.78c0 66.15 69.54 183.58 143.3 183.58v11.19h-484.7v-11.19c73.76 0 143.3-117.43 143.3-183.58v-524.9c0-71.54-82.84-136.29-143.69-136.31V966.2c104.17 0 225.75-49.93 341.78-151.24v203.88c82.05-82.05 182.92-172.26 303.68-170.51 113.91 3.86 169.27 59.64 185.6 175.68v-.01c84.54-78.33 177.6-176.15 302.35-175.77 172.38.53 198.09 127.13 198.09 271.51v524.9c0 66.15 69.54 183.58 143.3 183.58v11.19h-484.7v-11.19zm-1384.91-708.66c0-71.54-82.84-136.29-143.69-136.31v-17.14c104.17 0 225.75-49.93 341.78-151.24v829.68c0 66.09 69.54 183.58 143.3 183.58v11.19h-341.4v-140.05c-79.19 79.3-182.37 170.38-296.2 170.03-172.38-.53-198.09-127.13-198.09-271.51v-478.23c0-71.54-82.84-136.29-143.69-136.31v-17.14c104.17 0 225.75-49.93 341.78-151.24l.01 782.92c-.01 133.69 158.81 194.78 296.19 50.57v-3.81l.01-524.99zm-1098.55 524.99c0 66.1 69.54 183.58 143.3 183.58v11.19h-484.7v-11.19c73.76 0 143.3-117.43 143.3-183.58v-524.9c0-71.54-82.84-136.29-143.69-136.31V966.2c104.17 0 225.75-49.93 341.78-151.24v255.7c0-96.71 154.86-227.51 264.27-227.51 103.4 0 136.21 83.39 136.21 140.21 0 80.28-48.33 134.08-103.71 136.38-144.9 6.04-136.01-149.38-223.54-97.67-38.97 23.01-73.23 121.32-73.23 155.35l.01 467.13zM7366.3 823.42c233.79 0 423.33 227.41 423.33 507.95 0 280.53-189.54 507.94-423.33 507.94-233.8 0-423.34-227.41-423.34-507.94 0-280.54 189.54-507.95 423.34-507.95zm-3.01 63.94c89.13 0 161.39 92.67 161.39 207v514.9c0 92.29-56.48 206.99-161.39 206.99-89.14 0-161.4-92.67-161.4-206.98v-514.86c0-92.31 56.45-207.05 161.4-207.05zm-1003.54 757.19c0 66.15 69.54 183.58 143.3 183.58v11.19h-484.7v-11.19c73.76 0 143.3-117.43 143.3-183.58V594.75c0-66.14-69.55-175-143.31-175v-11.19h792.32c22.36 0 57.53-17.13 70.94-42.34-12.08 165.08 9.26 300.21 62.45 406.78l-12.65 11.81c-93.86-38.35-179.79-99.7-247.27-252.33-15.9-35.96-52.32-71.73-93.68-71.73h-102.96c-60.21 0-126.84 77.71-127.74 134v439.69h211.78c113.04 0 171.44-175.66 251.94-175.66-21.5 54.02-23.83 137.1-23.83 205.65 0 68.55 2.33 151.63 23.83 205.65-80.5 0-138.9-175.66-251.94-175.66l-211.78-.01v550.14zm-759.36 0c0 66.1 69.54 183.58 143.3 183.58v11.19h-484.7v-11.19c73.76 0 143.3-117.43 143.3-183.58v-524.9c0-71.54-82.84-136.29-143.69-136.31V966.2c104.17 0 225.75-49.93 341.78-151.24v255.7c0-96.71 154.86-227.51 264.27-227.51 103.4 0 136.21 83.39 136.21 140.21 0 80.28-48.33 134.08-103.71 136.38-144.9 6.04-136.01-149.38-223.54-97.67-38.97 23.01-73.23 121.32-73.23 155.35l.01 467.13zm-781.47-821.13c181.99 0 334.9 161.89 378.25 380.99h-577.03c-.05 3.38-.09 6.78-.09 10.18 0 237.46 138.36 429.96 309.06 429.96 94.19 0 178.51-58.61 235.19-151.03v.06l23.16 6.25c-53.42 197.72-198.25 339.49-368.54 339.49-215.69 0-390.54-227.42-390.54-507.95s174.85-507.95 390.54-507.95zm-33.3 72.44c77.28 0 142.19 119.69 160.44 281.56h-320.88c18.25-161.87 83.16-281.56 160.44-281.56zm-923.57 748.69c0 109.58 45.96 194.77 143.17 194.77 97.21 0 210.84-63.06 265.11-138.51l-4.35-3.83c-100.85 52.66-205.84 20.88-205.84-52.43V907.27h196.47v-48.49h-196.47V408.56h-6.64c-26.92 251.54-236.91 481.58-335.14 481.58v17.14l143.69-.01v737.28zm-256.49-524.81v524.9c0 66.15 69.54 183.58 143.3 183.58v11.19h-484.7v-11.19c73.76 0 143.3-117.43 143.3-183.58v-524.9c.01-133.88-159.26-194.96-296.77-49.97l.01 574.78c0 66.15 69.54 183.58 143.3 183.58v11.19h-484.7v-11.19c73.76 0 143.3-117.43 143.3-183.58v-524.9c0-71.54-82.84-136.29-143.69-136.31V966.2c104.17 0 225.75-49.93 341.78-151.24v203.88c79.27-79.44 182.67-170.96 296.78-170.61 172.38.53 198.09 127.13 198.09 271.51z" fill="url(#a)"/><path d="M1223.2 740.86L1081.93 599.6 940.66 740.87H740.87v199.79L599.6 1081.93l141.27 141.27v199.79h199.79l141.27 141.27 141.27-141.27h199.79V1223.2l141.27-141.27-141.27-141.27V740.87l-199.79-.01zM880.63 595.94l98.82-98.82L782.13 299.8 1081.93 0l299.8 299.8-197.32 197.32 98.82 98.82h139.76V316.89h423.98v423.98h-279.05v139.75l98.82 98.83 197.32-197.32 299.8 299.8-299.8 299.8-197.32-197.32-98.82 98.82v139.76h279.05v423.98h-423.98v-279.05h-139.75l-98.83 98.82 197.32 197.32-299.8 299.8-299.8-299.8 197.32-197.32-98.82-98.82H740.87v279.05H316.89v-423.98h279.05v-139.75l-98.82-98.83-197.32 197.32L0 1081.93l299.8-299.8 197.32 197.32 98.82-98.82V740.87H316.89V316.89h423.98v279.05h139.76zm-418.8 0V461.83l134.11-.01.01 134.12H461.83zm-162.02 580.82l-94.83-94.83 94.82-94.84 94.84 94.83-94.83 94.84zm296.13 525.27H461.83l-.01-134.11 134.12-.01v134.12zm580.82 162.02l-94.83 94.83-94.84-94.82 94.83-94.84 94.84 94.83zm525.27-296.13v134.11l-134.11.01-.01-134.12h134.12zm162.02-580.82l94.83 94.83-94.82 94.84-94.84-94.83 94.83-94.84zm-296.13-525.27h134.11l.01 134.11-134.12.01V461.83zM987.1 299.8l94.83-94.83 94.84 94.83-94.83 94.84-94.84-94.84z" fill="url(#b)"/></svg>