<svg width="326" height="349" fill="none" xmlns="http://www.w3.org/2000/svg"><path d="M290.623 22.24C234.612-24.806 132.085 5.226 61.608 89.323c-70.478 84.08-82.23 190.385-26.22 237.43 20.12 16.902 46.227 23.858 74.722 21.935 16.379-2.195 29.008-16.23 29.008-33.216V247.66c0-18.508-14.989-33.514-33.476-33.514v-16.762h133.923v16.762c-18.487 0-33.476 15.006-33.476 33.514v65.049c20.641-13.979 40.49-31.777 58.305-53.031 70.478-84.089 82.221-190.393 26.229-237.439zM172.594 179.427c-19.783 0-35.836-16.052-35.836-35.877 0-19.824 16.053-35.877 35.836-35.877 19.784 0 35.855 16.053 35.855 35.877 0 19.825-16.053 35.877-35.855 35.877z" fill="#fff"/></svg>