<svg width="31" height="18" fill="none" xmlns="http://www.w3.org/2000/svg"><path d="M29.369 1.283c.21-.698 0-1.21-.994-1.21h-3.289c-.837 0-1.22.443-1.43.93 0 0-1.672 4.078-4.042 6.722-.765.77-1.114 1.013-1.532 1.013-.208 0-.511-.243-.511-.94V1.282c0-.837-.242-1.21-.939-1.21h-5.169c-.522 0-.837.388-.837.757 0 .792 1.185.975 1.306 3.207v4.842c0 1.06-.19 1.254-.61 1.254-1.114 0-3.826-4.094-5.436-8.78-.314-.91-.63-1.278-1.47-1.278H1.128C.188.075 0 .518 0 1.004c0 .873 1.115 5.193 5.191 10.906 2.719 3.902 6.545 6.017 10.031 6.017 2.09 0 2.348-.47 2.348-1.28v-2.949c0-.939.199-1.128.86-1.128.486 0 1.323.246 3.275 2.126 2.229 2.229 2.598 3.23 3.85 3.23h3.288c.94 0 1.409-.47 1.139-1.397-.296-.923-1.36-2.265-2.773-3.854-.768-.906-1.916-1.88-2.265-2.368-.488-.629-.347-.906 0-1.464.001.001 4.008-5.642 4.425-7.56z" fill="#7E838C"/></svg>